<svg id="visual" viewBox="0 0 900 600" width="900" height="600" xmlns="http://www.w3.org/2000/svg" xmlns:xlink="http://www.w3.org/1999/xlink" version="1.1"><rect x="0" y="0" width="900" height="600" fill="#EEE"></rect><path d="M0 153L21.5 163C43 173 86 193 128.8 204C171.7 215 214.3 217 257.2 221.3C300 225.7 343 232.3 385.8 223.2C428.7 214 471.3 189 514.2 189.5C557 190 600 216 642.8 215.2C685.7 214.3 728.3 186.7 771.2 172.3C814 158 857 157 878.5 156.5L900 156L900 601L878.5 601C857 601 814 601 771.2 601C728.3 601 685.7 601 642.8 601C600 601 557 601 514.2 601C471.3 601 428.7 601 385.8 601C343 601 300 601 257.2 601C214.3 601 171.7 601 128.8 601C86 601 43 601 21.5 601L0 601Z" fill="#f7caca"></path><path d="M0 289L21.5 281C43 273 86 257 128.8 257C171.7 257 214.3 273 257.2 273.7C300 274.3 343 259.7 385.8 253.3C428.7 247 471.3 249 514.2 253.7C557 258.3 600 265.7 642.8 269.2C685.7 272.7 728.3 272.3 771.2 275.8C814 279.3 857 286.7 878.5 290.3L900 294L900 601L878.5 601C857 601 814 601 771.2 601C728.3 601 685.7 601 642.8 601C600 601 557 601 514.2 601C471.3 601 428.7 601 385.8 601C343 601 300 601 257.2 601C214.3 601 171.7 601 128.8 601C86 601 43 601 21.5 601L0 601Z" fill="#f5becc"></path><path d="M0 314L21.5 318.7C43 323.3 86 332.7 128.8 337C171.7 341.3 214.3 340.7 257.2 332C300 323.3 343 306.7 385.8 304.2C428.7 301.7 471.3 313.3 514.2 314.8C557 316.3 600 307.7 642.8 309.3C685.7 311 728.3 323 771.2 329.5C814 336 857 337 878.5 337.5L900 338L900 601L878.5 601C857 601 814 601 771.2 601C728.3 601 685.7 601 642.8 601C600 601 557 601 514.2 601C471.3 601 428.7 601 385.8 601C343 601 300 601 257.2 601C214.3 601 171.7 601 128.8 601C86 601 43 601 21.5 601L0 601Z" fill="#edb5d4"></path><path d="M0 373L21.5 371.3C43 369.7 86 366.3 128.8 361.3C171.7 356.3 214.3 349.7 257.2 348.3C300 347 343 351 385.8 350.3C428.7 349.7 471.3 344.3 514.2 348.5C557 352.7 600 366.3 642.8 371.7C685.7 377 728.3 374 771.2 378.5C814 383 857 395 878.5 401L900 407L900 601L878.5 601C857 601 814 601 771.2 601C728.3 601 685.7 601 642.8 601C600 601 557 601 514.2 601C471.3 601 428.7 601 385.8 601C343 601 300 601 257.2 601C214.3 601 171.7 601 128.8 601C86 601 43 601 21.5 601L0 601Z" fill="#dbaee0"></path><path d="M0 439L21.5 442.5C43 446 86 453 128.8 456.2C171.7 459.3 214.3 458.7 257.2 451.8C300 445 343 432 385.8 425.2C428.7 418.3 471.3 417.7 514.2 414C557 410.3 600 403.7 642.8 408.2C685.7 412.7 728.3 428.3 771.2 430.5C814 432.7 857 421.3 878.5 415.7L900 410L900 601L878.5 601C857 601 814 601 771.2 601C728.3 601 685.7 601 642.8 601C600 601 557 601 514.2 601C471.3 601 428.7 601 385.8 601C343 601 300 601 257.2 601C214.3 601 171.7 601 128.8 601C86 601 43 601 21.5 601L0 601Z" fill="#beabec"></path><path d="M0 481L21.5 483.3C43 485.7 86 490.3 128.8 485.7C171.7 481 214.3 467 257.2 462.5C300 458 343 463 385.8 463.5C428.7 464 471.3 460 514.2 463C557 466 600 476 642.8 485C685.7 494 728.3 502 771.2 505.8C814 509.7 857 509.3 878.5 509.2L900 509L900 601L878.5 601C857 601 814 601 771.2 601C728.3 601 685.7 601 642.8 601C600 601 557 601 514.2 601C471.3 601 428.7 601 385.8 601C343 601 300 601 257.2 601C214.3 601 171.7 601 128.8 601C86 601 43 601 21.5 601L0 601Z" fill="#93abf5"></path><path d="M0 507L21.5 514.5C43 522 86 537 128.8 546.7C171.7 556.3 214.3 560.7 257.2 558.3C300 556 343 547 385.8 545.3C428.7 543.7 471.3 549.3 514.2 555.2C557 561 600 567 642.8 561.5C685.7 556 728.3 539 771.2 527.5C814 516 857 510 878.5 507L900 504L900 601L878.5 601C857 601 814 601 771.2 601C728.3 601 685.7 601 642.8 601C600 601 557 601 514.2 601C471.3 601 428.7 601 385.8 601C343 601 300 601 257.2 601C214.3 601 171.7 601 128.8 601C86 601 43 601 21.5 601L0 601Z" fill="#4facf7"></path></svg>